<svg width="162" height="60" viewBox="0 0 162 60" fill="none" xmlns="http://www.w3.org/2000/svg">
<path d="M71.688 19.36C72.664 19.568 73.448 20.056 74.04 20.824C74.632 21.576 74.928 22.44 74.928 23.416C74.928 24.824 74.432 25.944 73.44 26.776C72.464 27.592 71.096 28 69.336 28H61.488V11.152H69.072C70.784 11.152 72.12 11.544 73.08 12.328C74.056 13.112 74.544 14.176 74.544 15.52C74.544 16.512 74.28 17.336 73.752 17.992C73.24 18.648 72.552 19.104 71.688 19.36ZM65.592 17.968H68.28C68.952 17.968 69.464 17.824 69.816 17.536C70.184 17.232 70.368 16.792 70.368 16.216C70.368 15.64 70.184 15.2 69.816 14.896C69.464 14.592 68.952 14.44 68.28 14.44H65.592V17.968ZM68.616 24.688C69.304 24.688 69.832 24.536 70.2 24.232C70.584 23.912 70.776 23.456 70.776 22.864C70.776 22.272 70.576 21.808 70.176 21.472C69.792 21.136 69.256 20.968 68.568 20.968H65.592V24.688H68.616ZM83.4043 28.192C82.0923 28.192 80.9083 27.912 79.8523 27.352C78.8123 26.792 77.9883 25.992 77.3803 24.952C76.7883 23.912 76.4923 22.696 76.4923 21.304C76.4923 19.928 76.7963 18.72 77.4043 17.68C78.0123 16.624 78.8443 15.816 79.9003 15.256C80.9563 14.696 82.1403 14.416 83.4523 14.416C84.7643 14.416 85.9483 14.696 87.0043 15.256C88.0603 15.816 88.8923 16.624 89.5003 17.68C90.1083 18.72 90.4123 19.928 90.4123 21.304C90.4123 22.68 90.1003 23.896 89.4763 24.952C88.8683 25.992 88.0283 26.792 86.9563 27.352C85.9003 27.912 84.7163 28.192 83.4043 28.192ZM83.4043 24.64C84.1883 24.64 84.8523 24.352 85.3963 23.776C85.9563 23.2 86.2363 22.376 86.2363 21.304C86.2363 20.232 85.9643 19.408 85.4203 18.832C84.8923 18.256 84.2363 17.968 83.4523 17.968C82.6523 17.968 81.9883 18.256 81.4603 18.832C80.9323 19.392 80.6683 20.216 80.6683 21.304C80.6683 22.376 80.9243 23.2 81.4363 23.776C81.9643 24.352 82.6203 24.64 83.4043 24.64ZM98.6856 28.192C97.3736 28.192 96.1896 27.912 95.1336 27.352C94.0936 26.792 93.2696 25.992 92.6616 24.952C92.0696 23.912 91.7736 22.696 91.7736 21.304C91.7736 19.928 92.0776 18.72 92.6856 17.68C93.2936 16.624 94.1256 15.816 95.1816 15.256C96.2376 14.696 97.4216 14.416 98.7336 14.416C100.046 14.416 101.23 14.696 102.286 15.256C103.342 15.816 104.174 16.624 104.782 17.68C105.39 18.72 105.694 19.928 105.694 21.304C105.694 22.68 105.382 23.896 104.758 24.952C104.15 25.992 103.31 26.792 102.238 27.352C101.182 27.912 99.9976 28.192 98.6856 28.192ZM98.6856 24.64C99.4696 24.64 100.134 24.352 100.678 23.776C101.238 23.2 101.518 22.376 101.518 21.304C101.518 20.232 101.246 19.408 100.702 18.832C100.174 18.256 99.5176 17.968 98.7336 17.968C97.9336 17.968 97.2696 18.256 96.7416 18.832C96.2136 19.392 95.9496 20.216 95.9496 21.304C95.9496 22.376 96.2056 23.2 96.7176 23.776C97.2456 24.352 97.9016 24.64 98.6856 24.64ZM124.959 14.464C126.623 14.464 127.943 14.968 128.919 15.976C129.911 16.984 130.407 18.384 130.407 20.176V28H126.327V20.728C126.327 19.864 126.095 19.2 125.631 18.736C125.183 18.256 124.559 18.016 123.759 18.016C122.959 18.016 122.327 18.256 121.863 18.736C121.415 19.2 121.191 19.864 121.191 20.728V28H117.111V20.728C117.111 19.864 116.879 19.2 116.415 18.736C115.967 18.256 115.343 18.016 114.543 18.016C113.743 18.016 113.111 18.256 112.647 18.736C112.199 19.2 111.975 19.864 111.975 20.728V28H107.871V14.608H111.975V16.288C112.391 15.728 112.935 15.288 113.607 14.968C114.279 14.632 115.039 14.464 115.887 14.464C116.895 14.464 117.791 14.68 118.575 15.112C119.375 15.544 119.999 16.16 120.447 16.96C120.911 16.224 121.543 15.624 122.343 15.16C123.143 14.696 124.015 14.464 124.959 14.464ZM77.304 31.152L71.328 48H66.192L60.216 31.152H64.584L68.76 43.872L72.96 31.152H77.304ZM81.0833 33.216C80.3633 33.216 79.7713 33.008 79.3073 32.592C78.8593 32.16 78.6353 31.632 78.6353 31.008C78.6353 30.368 78.8593 29.84 79.3073 29.424C79.7713 28.992 80.3633 28.776 81.0833 28.776C81.7873 28.776 82.3633 28.992 82.8113 29.424C83.2753 29.84 83.5073 30.368 83.5073 31.008C83.5073 31.632 83.2753 32.16 82.8113 32.592C82.3633 33.008 81.7873 33.216 81.0833 33.216ZM83.1233 34.608V48H79.0193V34.608H83.1233ZM85.2814 41.28C85.2814 39.904 85.5374 38.696 86.0494 37.656C86.5774 36.616 87.2894 35.816 88.1854 35.256C89.0814 34.696 90.0814 34.416 91.1854 34.416C92.1294 34.416 92.9534 34.608 93.6574 34.992C94.3774 35.376 94.9294 35.88 95.3134 36.504V34.608H99.4174V48H95.3134V46.104C94.9134 46.728 94.3534 47.232 93.6334 47.616C92.9294 48 92.1054 48.192 91.1614 48.192C90.0734 48.192 89.0814 47.912 88.1854 47.352C87.2894 46.776 86.5774 45.968 86.0494 44.928C85.5374 43.872 85.2814 42.656 85.2814 41.28ZM95.3134 41.304C95.3134 40.28 95.0254 39.472 94.4494 38.88C93.8894 38.288 93.2014 37.992 92.3854 37.992C91.5694 37.992 90.8734 38.288 90.2974 38.88C89.7374 39.456 89.4574 40.256 89.4574 41.28C89.4574 42.304 89.7374 43.12 90.2974 43.728C90.8734 44.32 91.5694 44.616 92.3854 44.616C93.2014 44.616 93.8894 44.32 94.4494 43.728C95.0254 43.136 95.3134 42.328 95.3134 41.304ZM107.474 34.416C108.418 34.416 109.242 34.608 109.946 34.992C110.666 35.376 111.218 35.88 111.602 36.504V34.608H115.706V47.976C115.706 49.208 115.458 50.32 114.962 51.312C114.482 52.32 113.738 53.12 112.73 53.712C111.738 54.304 110.498 54.6 109.01 54.6C107.026 54.6 105.418 54.128 104.186 53.184C102.954 52.256 102.25 50.992 102.074 49.392H106.13C106.258 49.904 106.562 50.304 107.042 50.592C107.522 50.896 108.114 51.048 108.818 51.048C109.666 51.048 110.338 50.8 110.834 50.304C111.346 49.824 111.602 49.048 111.602 47.976V46.08C111.202 46.704 110.65 47.216 109.946 47.616C109.242 48 108.418 48.192 107.474 48.192C106.37 48.192 105.37 47.912 104.474 47.352C103.578 46.776 102.866 45.968 102.338 44.928C101.826 43.872 101.57 42.656 101.57 41.28C101.57 39.904 101.826 38.696 102.338 37.656C102.866 36.616 103.578 35.816 104.474 35.256C105.37 34.696 106.37 34.416 107.474 34.416ZM111.602 41.304C111.602 40.28 111.314 39.472 110.738 38.88C110.178 38.288 109.49 37.992 108.674 37.992C107.858 37.992 107.162 38.288 106.586 38.88C106.026 39.456 105.746 40.256 105.746 41.28C105.746 42.304 106.026 43.12 106.586 43.728C107.162 44.32 107.858 44.616 108.674 44.616C109.49 44.616 110.178 44.32 110.738 43.728C111.314 43.136 111.602 42.328 111.602 41.304ZM131.299 41.088C131.299 41.472 131.276 41.872 131.228 42.288H121.94C122.004 43.12 122.268 43.76 122.732 44.208C123.212 44.64 123.796 44.856 124.484 44.856C125.508 44.856 126.22 44.424 126.62 43.56H130.988C130.764 44.44 130.356 45.232 129.764 45.936C129.188 46.64 128.46 47.192 127.58 47.592C126.7 47.992 125.716 48.192 124.628 48.192C123.316 48.192 122.148 47.912 121.124 47.352C120.1 46.792 119.3 45.992 118.724 44.952C118.148 43.912 117.86 42.696 117.86 41.304C117.86 39.912 118.14 38.696 118.7 37.656C119.276 36.616 120.076 35.816 121.1 35.256C122.124 34.696 123.3 34.416 124.628 34.416C125.924 34.416 127.076 34.688 128.084 35.232C129.092 35.776 129.876 36.552 130.436 37.56C131.012 38.568 131.299 39.744 131.299 41.088ZM127.1 40.008C127.1 39.304 126.86 38.744 126.38 38.328C125.9 37.912 125.3 37.704 124.58 37.704C123.892 37.704 123.308 37.904 122.828 38.304C122.364 38.704 122.076 39.272 121.964 40.008H127.1ZM141.625 34.464C143.193 34.464 144.441 34.976 145.369 36C146.313 37.008 146.785 38.4 146.785 40.176V48H142.705V40.728C142.705 39.832 142.473 39.136 142.009 38.64C141.545 38.144 140.921 37.896 140.137 37.896C139.353 37.896 138.729 38.144 138.265 38.64C137.801 39.136 137.569 39.832 137.569 40.728V48H133.465V34.608H137.569V36.384C137.985 35.792 138.545 35.328 139.249 34.992C139.953 34.64 140.745 34.464 141.625 34.464ZM155.084 48.192C153.916 48.192 152.876 47.992 151.964 47.592C151.052 47.192 150.332 46.648 149.804 45.96C149.276 45.256 148.98 44.472 148.916 43.608H152.972C153.02 44.072 153.236 44.448 153.62 44.736C154.004 45.024 154.476 45.168 155.036 45.168C155.548 45.168 155.94 45.072 156.212 44.88C156.5 44.672 156.644 44.408 156.644 44.088C156.644 43.704 156.444 43.424 156.044 43.248C155.644 43.056 154.996 42.848 154.1 42.624C153.14 42.4 152.34 42.168 151.7 41.928C151.06 41.672 150.508 41.28 150.044 40.752C149.58 40.208 149.348 39.48 149.348 38.568C149.348 37.8 149.556 37.104 149.972 36.48C150.404 35.84 151.028 35.336 151.844 34.968C152.676 34.6 153.66 34.416 154.796 34.416C156.476 34.416 157.796 34.832 158.756 35.664C159.732 36.496 160.292 37.6 160.436 38.976H156.644C156.58 38.512 156.372 38.144 156.02 37.872C155.684 37.6 155.236 37.464 154.676 37.464C154.196 37.464 153.828 37.56 153.572 37.752C153.316 37.928 153.188 38.176 153.188 38.496C153.188 38.88 153.388 39.168 153.788 39.36C154.204 39.552 154.844 39.744 155.708 39.936C156.7 40.192 157.508 40.448 158.132 40.704C158.756 40.944 159.3 41.344 159.764 41.904C160.244 42.448 160.492 43.184 160.508 44.112C160.508 44.896 160.284 45.6 159.836 46.224C159.404 46.832 158.772 47.312 157.94 47.664C157.124 48.016 156.172 48.192 155.084 48.192Z" fill="white"/>
<path d="M30 3.75001C30.9073 3.75002 31.814 3.79635 32.7166 3.88883L32.9084 2.02367C30.3228 1.75838 27.7131 1.84848 25.1519 2.29147L25.4731 4.13877C26.9681 3.87986 28.4827 3.7498 30 3.75001Z" fill="white"/>
<path d="M14.6127 8.73035L13.5123 7.21219C9.9067 9.81767 6.97145 13.2423 4.94823 17.2041C2.92502 21.1658 1.87171 25.5515 1.87501 30C1.86273 34.327 2.85909 38.5974 4.78501 42.4722L6.46501 41.6398C4.66793 38.0235 3.73835 34.0382 3.75001 30C3.74666 25.8478 4.72976 21.7541 6.61832 18.0562C8.50689 14.3583 11.2469 11.1619 14.6127 8.73035Z" fill="white"/>
<path d="M30.9058 56.2347L30.9692 58.1085C33.6068 58.0207 36.2189 57.5613 38.7282 56.744L38.1468 54.9615C35.8049 55.7241 33.3673 56.1527 30.9058 56.2347Z" fill="white"/>
<path d="M13.125 29.0625H15V50.625H13.125V29.0625Z" fill="white"/>
<path d="M18.75 29.0625H20.625V50.625H18.75V29.0625Z" fill="white"/>
<path d="M24.375 29.0625H26.25V50.625H24.375V29.0625Z" fill="white"/>
<path d="M57.5939 30.9048L40.697 22.7769C40.0246 22.4545 39.2518 22.412 38.5481 22.6586C37.8444 22.9052 37.2673 23.4209 36.9433 24.0924L31.875 34.6292V25.3125C31.8736 24.0697 31.3793 22.8783 30.5005 21.9995C29.6217 21.1207 28.4303 20.6264 27.1875 20.625H23.4375V5.625C23.4375 4.63044 23.0424 3.67661 22.3391 2.97335C21.6359 2.27009 20.6821 1.875 19.6875 1.875C18.6929 1.875 17.7391 2.27009 17.0359 2.97335C16.3326 3.67661 15.9375 4.63044 15.9375 5.625V20.625H12.1875C10.9447 20.6264 9.75327 21.1207 8.8745 21.9995C7.99573 22.8783 7.50141 24.0697 7.5 25.3125V49.6875C7.50114 50.6503 7.79821 51.5894 8.35097 52.3777C8.90372 53.166 9.68543 53.7653 10.5902 54.0944C10.3895 54.5116 10.2949 54.9718 10.3147 55.4343C10.3346 55.8969 10.4683 56.3473 10.704 56.7458C10.9397 57.1442 11.2701 57.4783 11.6659 57.7184C12.0617 57.9586 12.5106 58.0973 12.9729 58.1223C13.4351 58.1473 13.8964 58.0578 14.3158 57.8618C14.7352 57.6658 15.0997 57.3693 15.377 56.9986C15.6543 56.6279 15.8359 56.1945 15.9055 55.7369C15.9751 55.2792 15.9307 54.8114 15.7762 54.375H23.5988C23.4444 54.8113 23.4001 55.279 23.4699 55.7365C23.5396 56.1941 23.7211 56.6274 23.9984 56.9979C24.2757 57.3685 24.6402 57.6649 25.0595 57.8608C25.4788 58.0568 25.9399 58.1462 26.4021 58.1212C26.8642 58.0962 27.3131 57.9575 27.7088 57.7175C28.1045 57.4774 28.4348 57.1434 28.6705 56.7451C28.9062 56.3468 29.04 55.8965 29.0599 55.4341C29.0798 54.9717 28.9853 54.5115 28.7848 54.0944C29.5218 53.8254 30.1798 53.3764 30.6989 52.7883C31.2181 52.2001 31.582 51.4915 31.7574 50.7269L44.9961 57.0948C45.107 57.1483 45.2274 57.1794 45.3504 57.1863C45.4733 57.1932 45.5964 57.1758 45.7126 57.135C45.8288 57.0943 45.9359 57.0311 46.0276 56.9489C46.1194 56.8668 46.1941 56.7674 46.2473 56.6564L58.0324 32.156C58.1401 31.9319 58.1545 31.6742 58.0722 31.4396C57.99 31.2049 57.8179 31.0125 57.5939 30.9048ZM39.4794 24.3742C39.6196 24.3742 39.758 24.4058 39.8843 24.4667L55.9363 32.188L55.1235 33.8777L39.0714 26.1565C38.8478 26.0486 38.676 25.8564 38.5937 25.622C38.5114 25.3876 38.5254 25.1302 38.6326 24.9062L38.633 24.9052C38.7098 24.746 38.83 24.6117 38.9797 24.5177C39.1294 24.4238 39.3027 24.3741 39.4794 24.3742ZM17.8125 5.625C17.8125 5.12772 18.01 4.65081 18.3617 4.29917C18.7133 3.94754 19.1902 3.75 19.6875 3.75C20.1848 3.75 20.6617 3.94754 21.0133 4.29917C21.365 4.65081 21.5625 5.12772 21.5625 5.625V20.625H17.8125V5.625ZM14.0625 55.3125C14.0625 55.4979 14.0075 55.6792 13.9045 55.8333C13.8015 55.9875 13.6551 56.1077 13.4838 56.1786C13.3125 56.2496 13.124 56.2682 12.9421 56.232C12.7602 56.1958 12.5932 56.1065 12.4621 55.9754C12.331 55.8443 12.2417 55.6773 12.2055 55.4954C12.1693 55.3135 12.1879 55.125 12.2589 54.9537C12.3298 54.7824 12.45 54.636 12.6042 54.533C12.7583 54.43 12.9396 54.375 13.125 54.375C13.3736 54.3753 13.6118 54.4742 13.7876 54.6499C13.9634 54.8257 14.0622 55.0639 14.0625 55.3125ZM26.25 56.25C26.0646 56.25 25.8833 56.195 25.7292 56.092C25.575 55.989 25.4548 55.8426 25.3839 55.6713C25.3129 55.5 25.2943 55.3115 25.3305 55.1296C25.3667 54.9477 25.456 54.7807 25.5871 54.6496C25.7182 54.5185 25.8852 54.4292 26.0671 54.393C26.249 54.3568 26.4375 54.3754 26.6088 54.4464C26.7801 54.5173 26.9265 54.6375 27.0295 54.7917C27.1325 54.9458 27.1875 55.1271 27.1875 55.3125C27.1872 55.5611 27.0884 55.7993 26.9126 55.9751C26.7368 56.1509 26.4986 56.2497 26.25 56.25ZM27.1875 52.5H12.1875C11.4418 52.4991 10.727 52.2026 10.1997 51.6753C9.67244 51.148 9.37585 50.4332 9.375 49.6875V25.3125C9.37585 24.5668 9.67244 23.852 10.1997 23.3247C10.727 22.7974 11.4418 22.5009 12.1875 22.5H15.9375V27.1875H17.8125V22.5H21.5625V27.1875H23.4375V22.5H27.1875C27.9332 22.5009 28.648 22.7974 29.1753 23.3247C29.7026 23.852 29.9991 24.5668 30 25.3125V38.5272L26.7838 45.2136C26.6237 45.5464 26.5307 45.9075 26.5102 46.2763C26.4896 46.645 26.5419 47.0143 26.6641 47.3628C26.7862 47.7114 26.9758 48.0325 27.2221 48.3077C27.4683 48.583 27.7664 48.8071 28.0992 48.9672L29.9928 49.878C29.9438 50.589 29.627 51.2548 29.1064 51.7414C28.5858 52.228 27.9001 52.4991 27.1875 52.5ZM44.964 54.9988L28.912 47.2776C28.6879 47.1698 28.5158 46.9774 28.4336 46.7428C28.3514 46.5081 28.3657 46.2504 28.4735 46.0263L37.4838 27.2944C37.7087 27.5212 37.9708 27.7078 38.2587 27.8461L54.3108 35.5673L44.964 54.9988Z" fill="white"/>
<path d="M45.0496 33.1932C43.88 32.6307 42.5698 32.4276 41.2848 32.6097C39.9997 32.7917 38.7976 33.3508 37.8302 34.216C36.8629 35.0813 36.1739 36.214 35.8503 37.4709C35.5267 38.7278 35.5831 40.0524 36.0123 41.2772C36.4415 42.502 37.2243 43.5721 38.2616 44.3521C39.299 45.132 40.5443 45.5869 41.8402 45.6591C43.136 45.7313 44.4242 45.4176 45.5418 44.7578C46.6594 44.0979 47.5562 43.1214 48.1188 41.9519C48.8713 40.3831 48.9707 38.5799 48.3953 36.9379C47.8199 35.2959 46.6167 33.9492 45.0496 33.1932ZM46.7505 40.2534L45.0697 39.4449C45.4452 38.4087 45.6297 37.313 45.614 36.2109L45.6091 35.886C46.1502 36.4599 46.5384 37.1607 46.7379 37.9239C46.9373 38.687 46.9416 39.4881 46.7505 40.2534ZM40.9223 42.0958L40.6753 42.2871L40.6705 41.9748C40.6594 41.1639 40.7847 40.357 41.0412 39.5877L42.5558 40.3163C42.1149 40.9968 41.5627 41.5984 40.9223 42.0958ZM41.854 37.8981C42.2949 37.2175 42.8471 36.6159 43.4875 36.1185L43.7345 35.9272L43.7393 36.2395C43.7504 37.0504 43.6251 37.8574 43.3685 38.6267L41.854 37.8981ZM42.2123 34.4199C42.3399 34.4199 42.4678 34.4269 42.5958 34.4375L42.3397 34.6358C41.4689 35.3115 40.728 36.1396 40.1528 37.0799L38.4739 36.2723C38.9126 35.6967 39.4781 35.2301 40.1265 34.9089C40.7749 34.5876 41.4887 34.4203 42.2123 34.4199ZM37.6587 37.9607L39.3401 38.7695C38.9646 39.8056 38.7801 40.9013 38.7958 42.0034L38.8008 42.3313C38.2584 41.7575 37.8694 41.0563 37.6698 40.2923C37.4702 39.5284 37.4663 38.7265 37.6587 37.9607ZM41.8133 43.7774L42.0702 43.5785C42.9409 42.9028 43.6818 42.0747 44.2569 41.1345L45.9377 41.943C45.4592 42.5701 44.8306 43.0667 44.1099 43.3872C43.3892 43.7078 42.5995 43.8419 41.8133 43.7774Z" fill="white"/>
<path d="M33.0793 47.1982L33.8911 45.5089L42.338 49.5683L41.5262 51.2575L33.0793 47.1982Z" fill="white"/>
<path d="M42.3816 14.8058C41.8324 14.2579 41.0883 13.9502 40.3125 13.9502C39.5367 13.9502 38.7926 14.2579 38.2434 14.8058C38.046 15.0026 37.7787 15.1132 37.5 15.1132C37.2213 15.1132 36.954 15.0026 36.7566 14.8058L36.5223 14.5714C35.2887 13.3408 33.6174 12.6497 31.875 12.6497C30.1326 12.6497 28.4613 13.3408 27.2277 14.5714C26.9768 14.8237 26.6783 15.0237 26.3496 15.1599C26.0208 15.2961 25.6683 15.3657 25.3125 15.3647V17.2397C25.9147 17.2414 26.5111 17.1236 27.0675 16.8932C27.6238 16.6627 28.1289 16.3243 28.5535 15.8973C29.4351 15.0177 30.6296 14.5237 31.875 14.5237C33.1204 14.5237 34.3149 15.0177 35.1965 15.8973L35.4309 16.1317C35.9801 16.6796 36.7242 16.9873 37.5 16.9873C38.2758 16.9873 39.0199 16.6796 39.5691 16.1317C39.7664 15.9348 40.0338 15.8242 40.3125 15.8242C40.5912 15.8242 40.8586 15.9348 41.0559 16.1317L42.7838 17.8597C46.1442 21.2387 50.6566 23.2242 55.4182 23.4187C55.8214 24.9816 56.0793 26.5784 56.1885 28.1887L58.0592 28.0613C57.8112 24.3459 56.821 20.7179 55.1471 17.3917L53.4716 18.2333C54.0029 19.2916 54.4617 20.3847 54.8447 21.5051C50.7875 21.1833 46.9794 19.4198 44.1096 16.5337L42.3816 14.8058Z" fill="white"/>
<path d="M34.1987 6.42498L49.8139 15.9676C50.352 16.2982 50.986 16.4375 51.6131 16.3629C52.2402 16.2882 52.8237 16.0042 53.2693 15.5566L56.9129 11.913C57.0887 11.7372 57.1875 11.4987 57.1875 11.25C57.1875 11.0014 57.0887 10.7629 56.9129 10.5871L55.0379 8.71208C54.8846 8.55888 54.683 8.46349 54.4674 8.44215C54.2517 8.4208 54.0353 8.47482 53.855 8.59501L51.5625 10.1233L47.2821 7.26967L49.5 4.31252C49.6354 4.13198 49.7011 3.90866 49.6851 3.68355C49.6691 3.45844 49.5725 3.24666 49.4129 3.08709L48.4754 2.14959C48.3363 2.01047 48.1569 1.91865 47.9627 1.88714C47.7684 1.85564 47.5692 1.88604 47.3933 1.97404L42.2285 4.55639L40.493 3.51498C39.5969 2.97598 38.5462 2.75255 37.5083 2.88032C36.4705 3.00809 35.5053 3.4797 34.7668 4.21994L34.0246 4.96208C33.9243 5.06237 33.8481 5.18411 33.8017 5.31812C33.7552 5.45214 33.7398 5.59494 33.7566 5.73578C33.7733 5.87662 33.8218 6.01181 33.8984 6.1312C33.975 6.25058 34.0777 6.35103 34.1987 6.42498ZM39.5283 5.12287L41.7051 6.42899C41.8404 6.51011 41.9939 6.5558 42.1515 6.56184C42.3091 6.56788 42.4657 6.53407 42.6068 6.46355L47.3047 4.11453L45.1875 6.93756C45.111 7.03955 45.0561 7.15607 45.0262 7.28C44.9963 7.40393 44.9919 7.53266 45.0135 7.65833C45.035 7.78399 45.0819 7.90394 45.1514 8.01084C45.2209 8.11774 45.3114 8.20935 45.4175 8.28006L51.0425 12.0301C51.1965 12.1327 51.3774 12.1875 51.5625 12.1875C51.7476 12.1875 51.9285 12.1327 52.0825 12.0301L54.2555 10.5814L54.9242 11.25L51.9434 14.2308C51.7949 14.38 51.6004 14.4747 51.3914 14.4995C51.1823 14.5244 50.971 14.4779 50.7917 14.3678L36.1955 5.44789C36.6425 5.04298 37.2079 4.79274 37.8082 4.73421C38.4084 4.67567 39.0115 4.81195 39.5283 5.12287Z" fill="white"/>
</svg>
