<svg width="16" height="16" viewBox="0 0 16 16" fill="none" xmlns="http://www.w3.org/2000/svg">
<g id="cama-de-casal">
<g id="Cama">
<path id="Vector" d="M14.2 7.28995V2.69995C14.1988 2.30249 14.0404 1.92165 13.7593 1.6406C13.4783 1.35955 13.0975 1.20114 12.7 1.19995H3.7C3.30254 1.20114 2.9217 1.35955 2.64065 1.6406C2.3596 1.92165 2.20118 2.30249 2.2 2.69995V7.28995C1.90822 7.39311 1.6555 7.58399 1.47647 7.83642C1.29744 8.08885 1.20087 8.39048 1.2 8.69995V14.7C1.2 14.8326 1.25268 14.9597 1.34644 15.0535C1.44021 15.1473 1.56739 15.2 1.7 15.2C1.83261 15.2 1.95978 15.1473 2.05355 15.0535C2.14732 14.9597 2.2 14.8326 2.2 14.7V13.7H14.2V14.7C14.2 14.8326 14.2527 14.9597 14.3464 15.0535C14.4402 15.1473 14.5674 15.2 14.7 15.2C14.8326 15.2 14.9598 15.1473 15.0536 15.0535C15.1473 14.9597 15.2 14.8326 15.2 14.7V8.69995C15.1991 8.39048 15.1026 8.08885 14.9235 7.83642C14.7445 7.58399 14.4918 7.39311 14.2 7.28995ZM8.7 6.19995C8.70118 5.80249 8.8596 5.42165 9.14065 5.1406C9.4217 4.85955 9.80254 4.70114 10.2 4.69995H11.2C11.5975 4.70114 11.9783 4.85955 12.2593 5.1406C12.5404 5.42165 12.6988 5.80249 12.7 6.19995V7.19995H8.7V6.19995ZM3.7 6.19995C3.70118 5.80249 3.8596 5.42165 4.14065 5.1406C4.4217 4.85955 4.80254 4.70114 5.2 4.69995H6.2C6.59746 4.70114 6.9783 4.85955 7.25935 5.1406C7.54039 5.42165 7.69881 5.80249 7.7 6.19995V7.19995H3.7V6.19995ZM14.2 10.2H2.2V8.69995C2.2 8.56734 2.25268 8.44017 2.34644 8.3464C2.44021 8.25263 2.56739 8.19995 2.7 8.19995H13.7C13.8326 8.19995 13.9598 8.25263 14.0536 8.3464C14.1473 8.44017 14.2 8.56734 14.2 8.69995V10.2Z" fill="#19202C"/>
</g>
</g>
</svg>
