<svg width="31" height="31" viewBox="0 0 31 31" fill="none" xmlns="http://www.w3.org/2000/svg">
<path d="M26.738 13.6712V5.06494C26.7358 4.3197 26.4388 3.60563 25.9118 3.07866C25.3849 2.5517 24.6708 2.25467 23.9255 2.25244H7.05054C6.3053 2.25467 5.59122 2.5517 5.06426 3.07866C4.53729 3.60563 4.24026 4.3197 4.23804 5.06494V13.6712C3.69096 13.8646 3.2171 14.2225 2.88142 14.6958C2.54574 15.1691 2.36467 15.7347 2.36304 16.3149V27.5649C2.36304 27.8136 2.46181 28.052 2.63762 28.2279C2.81344 28.4037 3.0519 28.5024 3.30054 28.5024C3.54918 28.5024 3.78763 28.4037 3.96345 28.2279C4.13927 28.052 4.23804 27.8136 4.23804 27.5649V25.6899H26.738V27.5649C26.738 27.8136 26.8368 28.052 27.0126 28.2279C27.1884 28.4037 27.4269 28.5024 27.6755 28.5024C27.9242 28.5024 28.1626 28.4037 28.3385 28.2279C28.5143 28.052 28.613 27.8136 28.613 27.5649V16.3149C28.6114 15.7347 28.4303 15.1691 28.0947 14.6958C27.759 14.2225 27.2851 13.8646 26.738 13.6712ZM16.4255 11.6274C16.4278 10.8822 16.7248 10.1681 17.2518 9.64116C17.7787 9.1142 18.4928 8.81717 19.238 8.81494H21.113C21.8583 8.81717 22.5724 9.1142 23.0993 9.64116C23.6263 10.1681 23.9233 10.8822 23.9255 11.6274V13.5024H16.4255V11.6274ZM7.05054 11.6274C7.05276 10.8822 7.34979 10.1681 7.87676 9.64116C8.40372 9.1142 9.1178 8.81717 9.86304 8.81494H11.738C12.4833 8.81717 13.1974 9.1142 13.7243 9.64116C14.2513 10.1681 14.5483 10.8822 14.5505 11.6274V13.5024H7.05054V11.6274ZM26.738 19.1274H4.23804V16.3149C4.23804 16.0663 4.33681 15.8278 4.51262 15.652C4.68844 15.4762 4.9269 15.3774 5.17554 15.3774H25.8005C26.0492 15.3774 26.2876 15.4762 26.4635 15.652C26.6393 15.8278 26.738 16.0663 26.738 16.3149V19.1274Z" fill="#00B8C4"/>
</svg>
