<svg width="30" height="31" viewBox="0 0 30 31" fill="none" xmlns="http://www.w3.org/2000/svg">
<g clip-path="url(#clip0_23_61)">
<path d="M29.5237 13.563L15.6487 0.263104C15.2863 -0.084568 14.7137 -0.084568 14.3513 0.263104L0.46257 13.5767C0.168686 13.8706 0 14.2755 0 14.6893C0 15.5506 0.701294 16.2519 1.56258 16.2519H3.75V28.1267C3.75 29.1617 4.59 30.0017 5.625 30.0017H10.9376C11.4551 30.0017 11.8751 29.5817 11.8751 29.0642V20.9394C11.8751 20.7679 12.0149 20.6267 12.1875 20.6267H17.8125C17.9837 20.6267 18.1249 20.7679 18.1249 20.9394V29.0642C18.1249 29.5817 18.5449 30.0017 19.0624 30.0017H24.375C25.41 30.0017 26.25 29.1617 26.25 28.1267V16.2519H28.4374C29.2987 16.2519 30 15.5506 30 14.6893C30 14.2755 29.8313 13.8706 29.5237 13.563Z" fill="#00B8C4"/>
</g>
<defs>
<clipPath id="clip0_23_61">
<rect width="30" height="30" fill="white" transform="translate(0 0.00244141)"/>
</clipPath>
</defs>
</svg>
