<svg width="50" height="50" viewBox="0 0 50 50" fill="none" xmlns="http://www.w3.org/2000/svg">
<g id="central-de-atendimento">
<g id="Group">
<path id="Vector" d="M32.2495 29.3665H17.7485C11.6675 29.922 6.90448 35.034 6.90448 41.2605C6.90448 47.208 11.25 47.5 16.941 47.5C17.562 47.5 18.1985 47.497 18.8495 47.497H31.1515C31.798 47.497 32.436 47.5 33.057 47.5C38.748 47.5 43.096 47.2085 43.096 41.2605C43.094 35.0335 38.3305 29.921 32.2495 29.3665Z" fill="#FA5450"/>
<path id="Vector_2" d="M27.1955 23.2196H29.0235C29.626 23.2196 30.199 23.4246 30.6605 23.7896C31.7125 23.6486 32.706 23.3751 33.567 23.0026C33.8155 22.6346 34.0315 22.2436 34.2305 21.8431V17.8426C34.2305 16.9381 34.567 16.0956 35.1505 15.4536C34.298 10.6141 30.083 6.93506 24.999 6.93506C19.9165 6.93506 15.7005 10.6146 14.848 15.4541C15.431 16.0956 15.768 16.9381 15.768 17.8426V21.8431C17.4585 25.2361 20.952 27.5721 24.9985 27.5721C25.0615 27.5721 25.1225 27.5641 25.185 27.5626C24.7945 27.1011 24.5495 26.5131 24.5495 25.8631C24.55 24.4056 25.737 23.2196 27.1955 23.2196Z" fill="#FA5450"/>
<path id="Vector_3" d="M12.0885 24.7345H12.204C13.472 24.7345 14.501 23.7055 14.501 22.433V17.842C14.501 16.94 13.9805 16.163 13.223 15.7865C13.5505 9.574 18.7065 4.6215 24.9985 4.6215C31.2905 4.6215 36.4485 9.5735 36.775 15.7865C36.0175 16.1625 35.4975 16.94 35.4975 17.842V22.433C35.4975 22.738 35.557 23.022 35.661 23.288C34.3215 24.2445 32.373 24.9275 30.1785 25.1165C29.93 24.739 29.5065 24.4865 29.0225 24.4865H27.1945C26.4325 24.4865 25.8165 25.1035 25.8165 25.8625C25.8165 26.6225 26.432 27.2405 27.1945 27.2405H29.0225C29.555 27.2405 30.009 26.937 30.238 26.497C32.786 26.296 35.0015 25.518 36.558 24.3675C36.9145 24.5985 37.3375 24.734 37.794 24.734H37.909C39.1785 24.734 40.2055 23.705 40.2055 22.4325V17.8415C40.2055 16.927 39.6695 16.1375 38.896 15.771C38.559 8.399 32.455 2.5 24.999 2.5C17.543 2.5 11.438 8.399 11.1035 15.772C10.329 16.138 9.7915 16.928 9.7915 17.8425V22.4335C9.7915 23.7055 10.8215 24.7345 12.0885 24.7345Z" fill="#FA5450"/>
</g>
</g>
</svg>
