<svg width="31" height="31" viewBox="0 0 31 31" fill="none" xmlns="http://www.w3.org/2000/svg">
<g clip-path="url(#clip0_23_63)">
<path d="M24.9864 6.43556L24.492 5.93998C23.9728 5.42277 23.2075 5.3265 22.5796 5.62117C20.0073 3.3809 16.2291 3.15649 13.4105 5.11967C12.0201 4.22488 10.4161 3.75244 8.76085 3.75244C4.02332 3.75244 0.169556 7.6062 0.169556 12.3437V25.6274C0.169556 25.9729 0.449106 26.2524 0.794574 26.2524H3.29459C3.64 26.2524 3.91955 25.9729 3.91955 25.6274V12.3437C3.91955 9.67409 6.0912 7.50243 8.76085 7.50243C9.5177 7.50243 10.2574 7.6788 10.9288 8.01695C9.63137 10.7123 10.074 13.9149 12.0333 16.165C11.9292 16.387 11.8626 16.6249 11.8626 16.8774C11.8626 17.3297 12.0384 17.7551 12.3582 18.0743L12.8526 18.5693C12.9698 18.6865 13.1285 18.7524 13.2945 18.7524C13.4605 18.7524 13.6193 18.6865 13.7364 18.5693L24.9864 7.31933C25.2305 7.07523 25.2305 6.67972 24.9864 6.43556Z" fill="#00B8C4"/>
<path d="M18.8878 16.6797C18.778 16.3519 18.4264 16.1767 18.0968 16.2847C17.7697 16.3934 17.5927 16.7474 17.7013 17.0752L18.9513 20.8252C19.0392 21.087 19.2833 21.2524 19.5445 21.2524C19.6105 21.2524 19.6764 21.242 19.7423 21.2201C20.0694 21.1114 20.2464 20.7574 20.1378 20.4296L18.8878 16.6797Z" fill="#00B8C4"/>
<path d="M23.2945 17.5024C23.4544 17.5024 23.6143 17.4414 23.7365 17.3193C23.9806 17.0752 23.9806 16.6797 23.7365 16.4356L21.2364 13.9356C20.9923 13.6914 20.5968 13.6914 20.3527 13.9356C20.1085 14.1797 20.1085 14.5752 20.3527 14.8193L22.8527 17.3193C22.9747 17.4414 23.1346 17.5024 23.2945 17.5024Z" fill="#00B8C4"/>
<path d="M22.7013 11.6797C22.5927 12.0075 22.7697 12.3614 23.0968 12.4701L26.8468 13.7201C26.9127 13.7421 26.9786 13.7524 27.0446 13.7524C27.3058 13.7524 27.5499 13.587 27.6378 13.3252C27.7464 12.9974 27.5694 12.6434 27.2423 12.5347L23.4923 11.2848C23.1676 11.1768 22.8124 11.3526 22.7013 11.6797Z" fill="#00B8C4"/>
<path d="M22.5645 19.0307C22.3716 18.7433 21.9822 18.6658 21.6978 18.8574C21.4109 19.0491 21.3328 19.4366 21.5245 19.7241L24.0245 23.4741C24.1454 23.6548 24.3431 23.7525 24.5445 23.7525C24.6642 23.7525 24.785 23.7183 24.8912 23.6474C25.1781 23.4558 25.2562 23.0683 25.0645 22.7807L22.5645 19.0307Z" fill="#00B8C4"/>
<path d="M29.8912 17.6074L26.1412 15.1074C25.8568 14.9176 25.4674 14.9927 25.2745 15.2807C25.0828 15.5682 25.1609 15.9558 25.4478 16.1475L29.1978 18.6475C29.304 18.7182 29.4248 18.7525 29.5445 18.7525C29.7459 18.7525 29.9437 18.6548 30.0645 18.4741C30.2562 18.1866 30.1781 17.7991 29.8912 17.6074Z" fill="#00B8C4"/>
</g>
<defs>
<clipPath id="clip0_23_63">
<rect width="30" height="30" fill="white" transform="translate(0.169556 0.00244141)"/>
</clipPath>
</defs>
</svg>
