<svg width="16" height="16" viewBox="0 0 16 16" fill="none" xmlns="http://www.w3.org/2000/svg">
<g id="chuveiro">
<g id="Group">
<g id="Group_2">
<g id="Group_3">
<path id="Vector" d="M13.2357 3.431L12.972 3.16669C12.6951 2.89084 12.2869 2.8395 11.952 2.99665C10.5801 1.80184 8.56511 1.68216 7.06183 2.72919C6.3203 2.25197 5.46483 2 4.58202 2C2.05534 2 0 4.05534 0 6.58202V13.6666C0 13.8509 0.149093 14 0.333343 14H1.66668C1.8509 14 2 13.8509 2 13.6667V6.58202C2 5.15821 3.15821 4 4.58202 4C4.98568 4 5.38021 4.09406 5.73827 4.2744C5.0463 5.7119 5.28237 7.41996 6.32733 8.62005C6.27183 8.73846 6.2363 8.86533 6.2363 8.99999C6.2363 9.2412 6.33005 9.46808 6.50061 9.63833L6.7643 9.90233C6.8268 9.96483 6.91142 9.99998 6.99999 9.99998C7.08852 9.99998 7.17317 9.96483 7.23567 9.90233L13.2357 3.90234C13.3658 3.77215 13.3658 3.56122 13.2357 3.431Z" fill="#19202C"/>
<path id="Vector_2" d="M9.98303 8.89461C9.92444 8.7198 9.73694 8.62639 9.56116 8.68399C9.38669 8.74192 9.29228 8.93073 9.35022 9.10555L10.0169 11.1055C10.0637 11.2452 10.194 11.3334 10.3333 11.3334C10.3684 11.3334 10.4036 11.3279 10.4387 11.3162C10.6132 11.2582 10.7076 11.0694 10.6497 10.8946L9.98303 8.89461Z" fill="#19202C"/>
<path id="Vector_3" d="M12.3333 9.33326C12.4186 9.33326 12.5039 9.30069 12.569 9.2356C12.6992 9.10538 12.6992 8.89444 12.569 8.76426L11.2357 7.43092C11.1054 7.3007 10.8945 7.3007 10.7643 7.43092C10.6341 7.56113 10.6341 7.77207 10.7643 7.90226L12.0977 9.2356C12.1627 9.30069 12.248 9.33326 12.3333 9.33326Z" fill="#19202C"/>
<path id="Vector_4" d="M12.0169 6.22783C11.959 6.40264 12.0534 6.59142 12.2278 6.64939L14.2278 7.31605C14.263 7.32776 14.2982 7.3333 14.3333 7.3333C14.4726 7.3333 14.6028 7.24508 14.6497 7.10542C14.7077 6.93061 14.6132 6.74183 14.4388 6.68386L12.4388 6.0172C12.2656 5.95961 12.0762 6.05336 12.0169 6.22783Z" fill="#19202C"/>
<path id="Vector_5" d="M11.944 10.1485C11.8411 9.99523 11.6334 9.95388 11.4817 10.0561C11.3287 10.1583 11.2871 10.365 11.3893 10.5184L12.7226 12.5183C12.7871 12.6147 12.8926 12.6668 13 12.6668C13.0638 12.6668 13.1282 12.6486 13.1849 12.6108C13.3379 12.5086 13.3795 12.3019 13.2773 12.1485L11.944 10.1485Z" fill="#19202C"/>
<path id="Vector_6" d="M15.8515 9.38934L13.8515 8.056C13.6998 7.95475 13.4921 7.99481 13.3893 8.14844C13.2871 8.30175 13.3287 8.50847 13.4817 8.61069L15.4817 9.94403C15.5384 9.98178 15.6028 10 15.6666 10C15.7741 10 15.8795 9.94794 15.944 9.85159C16.0462 9.69825 16.0045 9.49156 15.8515 9.38934Z" fill="#19202C"/>
</g>
</g>
</g>
</g>
</svg>
