<svg width="50" height="50" viewBox="0 0 50 50" fill="none" xmlns="http://www.w3.org/2000/svg">
<g id="do-utilizador" clip-path="url(#clip0_32_15)">
<g id="Group">
<g id="Group_2">
<path id="Vector" d="M31.0655 4.11618L27.7739 3.64841L26.3075 0.748802C25.8096 -0.238208 24.1903 -0.238208 23.6925 0.748802L22.2262 3.6485L18.9346 4.11628C17.7271 4.28698 17.2448 5.78297 18.1307 6.62828L20.4924 8.87408L19.936 12.0383C19.7277 13.2291 20.9779 14.1447 22.0489 13.5948L24.9999 12.0785L27.9511 13.5948C29.037 14.1549 30.2701 13.2166 30.064 12.0383L29.5076 8.87408L31.8694 6.62819C32.7552 5.78287 32.2729 4.28698 31.0655 4.11618Z" fill="#FA5450"/>
</g>
</g>
<g id="Group_3">
<g id="Group_4">
<path id="Vector_2" d="M48.7411 13.0498L45.4495 12.582L43.9832 9.6824C43.4854 8.69539 41.8661 8.69539 41.3683 9.6824L39.902 12.582L36.6104 13.0498C35.4029 13.2205 34.9206 14.7165 35.8065 15.5618L38.1683 17.8077L37.6119 20.9719C37.4036 22.1626 38.6538 23.0783 39.7248 22.5284L42.6757 21.012L45.6269 22.5283C46.7182 23.0865 47.9449 22.1442 47.7398 20.9718L47.1833 17.8076L49.5451 15.5617C50.431 14.7165 49.9486 13.2205 48.7411 13.0498Z" fill="#FA5450"/>
</g>
</g>
<g id="Group_5">
<g id="Group_6">
<path id="Vector_3" d="M13.3896 13.0498L10.098 12.582L8.63156 9.6824C8.13371 8.69539 6.51438 8.69539 6.01662 9.6824L4.55032 12.582L1.25872 13.0498C0.0512047 13.2205 -0.431119 14.7165 0.454817 15.5618L2.81663 17.8077L2.26018 20.9719C2.05188 22.1626 3.30208 23.0783 4.37307 22.5284L7.32404 21.012L10.2752 22.5283C11.3634 23.0866 12.5936 22.1464 12.3881 20.9719L11.8316 17.8077L14.1935 15.5618C15.0793 14.7165 14.597 13.2206 13.3896 13.0498Z" fill="#FA5450"/>
</g>
</g>
<g id="Group_7">
<g id="Group_8">
<path id="Vector_4" d="M30.2809 32.0698C32.3983 30.4636 33.789 27.9458 33.789 25.0891C33.789 20.2425 29.8465 16.3 25 16.3C20.1534 16.3 16.2109 20.2425 16.2109 25.0891C16.2109 27.9458 17.6017 30.4635 19.719 32.0698C15.075 34.1115 11.8164 38.7421 11.8164 44.132V48.5266C11.8164 49.3362 12.4716 49.9914 13.2812 49.9914H36.7187C37.5284 49.9914 38.1835 49.3362 38.1835 48.5266V44.132C38.1835 38.7421 34.9251 34.1115 30.2809 32.0698Z" fill="#FA5450"/>
</g>
</g>
</g>
<defs>
<clipPath id="clip0_32_15">
<rect width="50" height="50" fill="white"/>
</clipPath>
</defs>
</svg>
