<svg width="50" height="50" viewBox="0 0 50 50" fill="none" xmlns="http://www.w3.org/2000/svg">
<g id="menor-preco">
<path id="Vector" fill-rule="evenodd" clip-rule="evenodd" d="M27.5467 17.769C28.874 19.2331 30.068 20.6197 31.1285 21.939V37.2046H29.2867C27.5064 37.2046 26.5388 39.296 27.6909 40.6529L31.5534 45.2021C28.8041 47.2708 25.2309 48.5011 21.3125 48.4351C10.019 48.6253 1.58613 38.0538 7.51396 27.6453C9.16377 24.7486 11.6854 21.5116 15.0786 17.7689C15.4143 17.864 15.7681 17.9149 16.1334 17.9149H26.492C26.8572 17.9149 27.211 17.8641 27.5467 17.769ZM37.0006 48.2502L44.3098 39.6416C44.603 39.296 44.3584 38.7671 43.9051 38.7671H40.5008V21.8492C40.5008 21.2644 40.0238 20.7874 39.439 20.7874L33.7527 20.7875C33.1679 20.7875 32.691 21.2645 32.6909 21.8493V38.7671H29.2866C28.8334 38.7671 28.5888 39.2961 28.8819 39.6416L36.1911 48.2502C36.4032 48.4999 36.7887 48.5 37.0006 48.2502ZM16.1333 16.3524H26.4919C27.769 16.3524 28.8139 15.3075 28.8139 14.0307C28.8139 12.7535 27.769 11.7088 26.4919 11.7088H16.1333C14.8562 11.7088 13.8114 12.7535 13.8114 14.0306C13.8114 15.3077 14.8562 16.3524 16.1333 16.3524ZM21.904 37.7509C20.2809 37.9478 18.4276 37.3234 17.9947 35.5872C17.8919 35.1692 17.4697 34.9138 17.0518 35.0165C16.6338 35.1193 16.3783 35.5415 16.4811 35.9595C16.96 37.8806 18.5921 39.0327 20.4871 39.2915V40.344C20.4871 40.7755 20.8369 41.1253 21.2684 41.1253C21.6998 41.1253 22.0496 40.7755 22.0496 40.3439V39.3055L22.0871 39.3011C24.0926 39.0576 26.13 37.8688 26.076 35.6051C26.0729 35.4718 26.0648 35.3509 26.0518 35.2433C25.754 32.7901 23.5463 31.9311 21.4049 31.5795C20.6696 31.4588 19.8913 31.252 19.3104 30.8728C18.8202 30.5527 18.4684 30.0868 18.4352 29.4021C18.3726 28.1131 19.4103 27.3045 20.5729 27.0703C21.0973 26.9647 21.6688 26.9772 22.1859 27.1083C23.0484 27.327 23.8336 27.8952 24.2469 28.8794C24.4137 29.2771 24.8715 29.4644 25.2692 29.2975C25.667 29.1307 25.8542 28.6728 25.6873 28.2751C25.0367 26.7256 23.6983 25.7297 22.0496 25.4929V24.4436C22.0496 24.0121 21.6998 23.6623 21.2684 23.6623C20.8369 23.6623 20.4871 24.0121 20.4871 24.4436V25.5051C20.4136 25.5166 20.3405 25.5298 20.2678 25.5443C18.3396 25.9326 16.7778 27.3974 16.8787 29.4752C16.994 31.8522 19.1027 32.7806 21.1546 33.1175C22.5136 33.3406 24.3046 33.8052 24.5014 35.4263C24.5122 35.5159 24.5183 35.5874 24.5195 35.6416C24.5525 37.0254 23.0566 37.6109 21.904 37.7509ZM16.3809 10.1463L14.1417 7.90723C13.2138 6.9793 13.2138 5.46074 14.1417 4.53281C14.931 3.74355 16.1804 3.61016 17.1195 4.21299C17.8427 4.67695 18.7979 4.28154 18.981 3.44199C19.2148 2.37109 20.1738 1.5626 21.3126 1.5625C22.4308 1.5625 23.4061 2.35059 23.6443 3.44209C23.8275 4.28145 24.7826 4.67715 25.5057 4.21309C26.4446 3.61045 27.6942 3.74365 28.4835 4.53271C29.4114 5.46064 29.4114 6.97939 28.4835 7.90723L26.2444 10.1462L16.3809 10.1463Z" fill="#FA5450"/>
</g>
</svg>
