<svg width="50" height="50" viewBox="0 0 50 50" fill="none" xmlns="http://www.w3.org/2000/svg">
<g id="pin-de-localizacao">
<g id="Group">
<g id="Group_2">
<path id="Vector" d="M24.9999 0C15.0023 0 6.9292 8.07313 6.9292 18.0707C6.9292 21.5566 8.04273 24.8851 9.592 27.6204L21.3688 48.0028C22.1072 49.3342 23.5959 49.9999 24.9999 49.9999C26.4041 49.9999 27.8201 49.3342 28.631 48.0028L40.4079 27.6325C41.9692 24.8969 43.0707 21.629 43.0707 18.0826C43.0707 8.08523 34.9975 0 24.9999 0ZM24.9999 23.4084C21.3688 23.4084 18.4034 20.443 18.4034 16.8119C18.4034 13.1809 21.3688 10.2155 24.9999 10.2155C28.631 10.2155 31.5964 13.1809 31.5964 16.8119C31.5964 20.4551 28.631 23.4084 24.9999 23.4084Z" fill="#FA5450"/>
</g>
</g>
</g>
</svg>
